<svg width="408" height="65" viewBox="0 0 408 65" fill="none" xmlns="http://www.w3.org/2000/svg">
<circle cx="52.3211" cy="31.3924" r="10.4641" fill="#201C1C"/>
<path fill-rule="evenodd" clip-rule="evenodd" d="M41.8564 10.4641C41.8564 16.2433 37.1715 20.9283 31.3923 20.9283V20.9283C29.2898 20.9283 27.0741 21.3706 25.6598 22.9263L22.4702 26.4349C21.2693 27.7559 20.9283 29.6071 20.9283 31.3925V31.3925V31.3925C20.9283 33.1776 21.2693 35.0285 22.4701 36.3494L25.6602 39.8586C27.0744 41.4142 29.2899 41.8565 31.3923 41.8565V41.8565C37.1715 41.8565 41.8564 46.5415 41.8564 52.3206C41.8564 58.0998 37.1715 62.7848 31.3923 62.7848C25.6131 62.7848 20.9281 58.0998 20.9281 52.3206C20.9281 52.2221 20.9295 52.1239 20.9322 52.026C21.0068 49.3281 20.8001 46.4052 18.9846 44.4082V44.4082C16.9382 42.1572 13.5675 41.839 10.5254 41.8565C10.505 41.8566 10.4846 41.8566 10.4641 41.8566C4.68495 41.8566 0 37.1717 0 31.3925C0 25.6133 4.68495 20.9284 10.4641 20.9284C10.4844 20.9284 10.5046 20.9284 10.5248 20.9285C13.567 20.9458 16.9379 20.6276 18.9843 18.3765V18.3765C20.7999 16.3794 21.0067 13.4564 20.9322 10.7583C20.9295 10.6606 20.9281 10.5625 20.9281 10.4641C20.9281 4.68495 25.6131 0 31.3923 0C37.1715 0 41.8564 4.68495 41.8564 10.4641Z" fill="#201C1C"/>
<path d="M96.9357 25.2417C97.3229 24.7841 97.5165 24.2386 97.5165 23.605C97.5165 22.9715 97.3229 22.4083 96.9357 21.9155C96.5837 21.3876 96.0558 21.1236 95.3518 21.1236H90.9169V25.9281H95.3518C96.0558 25.9281 96.5837 25.6993 96.9357 25.2417ZM90.9169 34.745V39.9191H95.827C96.6365 39.9191 97.2349 39.6551 97.6221 39.1271C98.0444 38.5639 98.2556 37.948 98.2556 37.2792V37.2264C98.2556 36.5577 98.0268 35.9769 97.5693 35.4842C97.1469 34.9914 96.5661 34.745 95.827 34.745H90.9169ZM97.1997 49H79.1434C78.7562 49 78.4218 48.8592 78.1403 48.5776C77.8587 48.2961 77.7179 47.9617 77.7179 47.5745V13.4682C77.7179 13.081 77.8587 12.7466 78.1403 12.465C78.4218 12.1834 78.7562 12.0427 79.1434 12.0427H96.6717C101.67 12.0427 105.348 12.9578 107.706 14.7881C110.1 16.5831 111.296 19.3109 111.296 22.9715V23.1299C111.296 24.6434 110.856 25.9985 109.976 27.1952C109.096 28.3567 108.129 29.2014 107.073 29.7294C108.48 30.2925 109.66 31.2957 110.61 32.7388C111.595 34.1467 112.088 35.6954 112.088 37.3848C112.088 45.1283 107.125 49 97.1997 49ZM116.568 37.5432V22.9715C116.568 22.5843 116.709 22.2499 116.991 21.9683C117.272 21.6868 117.607 21.546 117.994 21.546H128.078C128.465 21.546 128.8 21.6868 129.081 21.9683C129.363 22.2499 129.504 22.5843 129.504 22.9715V37.1737C129.504 39.1095 130.383 40.0774 132.143 40.0774C133.903 40.0774 134.783 39.1095 134.783 37.1737V22.9715C134.783 22.5843 134.924 22.2499 135.206 21.9683C135.487 21.6868 135.821 21.546 136.209 21.546H146.24C146.627 21.546 146.961 21.6868 147.243 21.9683C147.525 22.2499 147.665 22.5843 147.665 22.9715V47.5745C147.665 47.9617 147.525 48.2961 147.243 48.5776C146.961 48.8592 146.627 49 146.24 49H137.001C136.613 49 136.279 48.8592 135.997 48.5776C135.716 48.2961 135.575 47.9617 135.575 47.5745V45.8322C133.921 48.2961 130.999 49.528 126.811 49.528C123.925 49.528 121.496 48.5248 119.525 46.5186C117.554 44.4771 116.568 41.4853 116.568 37.5432ZM163.8 49H154.349C153.962 49 153.628 48.8592 153.346 48.5776C153.064 48.2961 152.924 47.9617 152.924 47.5745V22.9715C152.924 22.5843 153.064 22.2499 153.346 21.9683C153.628 21.6868 153.962 21.546 154.349 21.546H163.8C164.187 21.546 164.521 21.6868 164.803 21.9683C165.084 22.2499 165.225 22.5843 165.225 22.9715V47.5745C165.225 47.9617 165.084 48.2961 164.803 48.5776C164.521 48.8592 164.187 49 163.8 49ZM164.961 11.3563V17.7446C164.961 18.1318 164.82 18.4662 164.539 18.7478C164.257 19.0294 163.923 19.1701 163.536 19.1701H154.613C154.226 19.1701 153.892 19.0294 153.61 18.7478C153.328 18.4662 153.188 18.1318 153.188 17.7446V11.3563C153.188 10.9691 153.328 10.6348 153.61 10.3532C153.892 10.0716 154.226 9.93081 154.613 9.93081H163.536C163.923 9.93081 164.257 10.0716 164.539 10.3532C164.82 10.6348 164.961 10.9691 164.961 11.3563ZM181.381 49H171.931C171.543 49 171.209 48.8592 170.928 48.5776C170.646 48.2961 170.505 47.9617 170.505 47.5745V12.9402C170.505 12.553 170.646 12.2186 170.928 11.9371C171.209 11.6555 171.543 11.5147 171.931 11.5147H181.381C181.768 11.5147 182.103 11.6555 182.384 11.9371C182.666 12.2186 182.807 12.553 182.807 12.9402V47.5745C182.807 47.9617 182.666 48.2961 182.384 48.5776C182.103 48.8592 181.768 49 181.381 49ZM187.295 37.332V33.1611C187.295 29.219 188.351 26.2096 190.463 24.133C192.574 22.0563 195.144 21.018 198.171 21.018C201.233 21.018 203.679 21.8452 205.509 23.4994V12.9402C205.509 12.553 205.65 12.2186 205.932 11.9371C206.213 11.6555 206.548 11.5147 206.935 11.5147H216.702C217.089 11.5147 217.424 11.6555 217.705 11.9371C217.987 12.2186 218.128 12.553 218.128 12.9402V47.5745C218.128 47.9617 217.987 48.2961 217.705 48.5776C217.424 48.8592 217.089 49 216.702 49H207.727C207.34 49 207.005 48.8592 206.724 48.5776C206.442 48.2961 206.301 47.9617 206.301 47.5745V45.9906C204.471 48.3488 201.884 49.528 198.54 49.528C195.197 49.528 192.486 48.5424 190.41 46.5714C188.333 44.5651 187.295 41.4853 187.295 37.332ZM205.509 37.0153V33.1083C205.404 31.3485 204.524 30.4685 202.87 30.4685C201.11 30.4685 200.23 31.4893 200.23 33.5307V37.0153C200.23 39.0567 201.11 40.0774 202.87 40.0774C204.63 40.0774 205.509 39.0567 205.509 37.0153ZM251.281 38.388H235.548V38.6519C235.548 40.799 236.234 41.8725 237.607 41.8725C237.994 41.8725 238.469 41.5909 239.032 41.0278C239.595 40.4646 240.211 40.183 240.88 40.183H250.859C251.633 40.183 252.02 40.5702 252.02 41.3445C252.02 43.0692 250.718 44.8643 248.113 46.7298C245.544 48.5952 242.042 49.528 237.607 49.528C233.207 49.528 229.599 48.384 226.783 46.0962C224.003 43.7732 222.613 40.5878 222.613 36.5401V34.0059C222.613 30.1694 224.038 27.0544 226.889 24.6609C229.74 22.2323 233.471 21.018 238.082 21.018C242.728 21.018 246.318 22.3731 248.852 25.0833C251.422 27.7935 252.706 31.2253 252.706 35.3786V36.9625C252.706 37.3496 252.566 37.684 252.284 37.9656C252.002 38.2472 251.668 38.388 251.281 38.388ZM239.771 31.5773C239.771 29.4654 239.067 28.4095 237.659 28.4095C236.252 28.4095 235.548 29.4654 235.548 31.5773V31.7884H239.771V31.5773ZM268.738 22.9715V24.8193C271.202 22.6371 273.947 21.546 276.974 21.546H279.508C279.895 21.546 280.23 21.6868 280.511 21.9683C280.793 22.2499 280.934 22.5843 280.934 22.9715V31.2077C280.934 31.5949 280.793 31.9292 280.511 32.2108C280.23 32.4924 279.895 32.6332 279.508 32.6332H272.698C271.747 32.6332 270.99 32.862 270.427 33.3195C269.899 33.7419 269.6 34.3227 269.53 35.0618V47.5745C269.53 47.9617 269.389 48.2961 269.107 48.5776C268.826 48.8592 268.491 49 268.104 49H258.073C257.686 49 257.351 48.8592 257.07 48.5776C256.788 48.2961 256.648 47.9617 256.648 47.5745V22.9715C256.648 22.5843 256.788 22.2499 257.07 21.9683C257.351 21.6868 257.686 21.546 258.073 21.546H267.312C267.7 21.546 268.034 21.6868 268.315 21.9683C268.597 22.2499 268.738 22.5843 268.738 22.9715ZM304.918 26.72H319.437C319.824 26.72 320.158 26.8608 320.44 27.1424C320.721 27.424 320.862 27.7583 320.862 28.1455V35.009C320.862 39.6551 319.208 43.2452 315.899 45.7794C312.591 48.2785 308.173 49.528 302.647 49.528C297.157 49.528 292.827 48.3136 289.66 45.885C286.492 43.4212 284.908 39.7431 284.908 34.8506V25.9809C284.908 21.2996 286.527 17.727 289.765 15.2632C293.003 12.7642 297.315 11.5147 302.7 11.5147C308.121 11.5147 312.503 12.6586 315.846 14.9464C319.19 17.1991 320.862 19.9797 320.862 23.2882C320.862 23.605 320.739 23.8866 320.493 24.133C320.281 24.3442 320.017 24.4498 319.701 24.4498H308.033C307.329 24.4498 306.818 24.2562 306.502 23.869C305.798 22.9539 305.27 22.4259 304.918 22.2851C304.108 21.9683 303.369 21.81 302.7 21.81C299.99 21.81 298.635 23.1299 298.635 25.7697V34.745C298.635 37.7368 300.078 39.2327 302.964 39.2327C305.921 39.2327 307.399 37.9656 307.399 35.4314H304.918C304.531 35.4314 304.196 35.2906 303.915 35.009C303.633 34.7274 303.492 34.3931 303.492 34.0059V28.1455C303.492 27.7583 303.633 27.424 303.915 27.1424C304.196 26.8608 304.531 26.72 304.918 26.72ZM325.375 21.546H334.298C335.107 21.546 335.671 21.9683 335.987 22.8131L340.317 34.8506L344.804 22.8131C345.156 21.9683 345.755 21.546 346.599 21.546H355.416C355.733 21.546 356.015 21.6692 356.261 21.9155C356.508 22.1267 356.631 22.3555 356.631 22.6019C356.631 22.8483 356.613 23.0419 356.578 23.1827L341.689 57.7642C341.337 58.6089 340.721 59.0313 339.842 59.0313H331.183C330.866 59.0313 330.585 58.9257 330.338 58.7145C330.127 58.5033 330.021 58.2393 330.021 57.9226C330.021 57.641 330.039 57.465 330.074 57.3946L334.298 47.2577L324.108 23.1827C324.073 23.0771 324.055 22.9539 324.055 22.8131C324.196 21.9683 324.636 21.546 325.375 21.546ZM390.558 30.4685C389.995 30.4685 389.502 30.6797 389.079 31.1021C388.692 31.5245 388.499 32.158 388.499 33.0028V47.5745C388.499 47.9617 388.358 48.2961 388.076 48.5776C387.795 48.8592 387.46 49 387.073 49H377.781C377.394 49 377.059 48.8592 376.778 48.5776C376.496 48.2961 376.355 47.9617 376.355 47.5745V33.3723C376.355 31.4365 375.652 30.4685 374.244 30.4685C373.645 30.4685 373.135 30.6973 372.713 31.1549C372.325 31.5773 372.132 32.1756 372.132 32.95V47.5745C372.132 47.9617 371.991 48.2961 371.709 48.5776C371.428 48.8592 371.093 49 370.706 49H361.203C360.816 49 360.481 48.8592 360.2 48.5776C359.918 48.2961 359.777 47.9617 359.777 47.5745V22.9715C359.777 22.5843 359.918 22.2499 360.2 21.9683C360.481 21.6868 360.816 21.546 361.203 21.546H369.914C370.302 21.546 370.636 21.6868 370.917 21.9683C371.199 22.2499 371.34 22.5843 371.34 22.9715V24.7137C372.044 23.7986 373.047 22.9715 374.349 22.2323C375.792 21.4228 377.411 21.018 379.206 21.018C383.078 21.018 385.683 22.4611 387.02 25.3473C387.865 24.1154 389.027 23.0947 390.505 22.2851C391.983 21.4404 393.514 21.018 395.098 21.018C397.949 21.018 400.272 22.0211 402.067 24.0274C403.898 26.0337 404.813 29.0254 404.813 33.0028V47.5745C404.813 47.9617 404.672 48.2961 404.39 48.5776C404.109 48.8592 403.774 49 403.387 49H394.095C393.708 49 393.373 48.8592 393.092 48.5776C392.81 48.2961 392.67 47.9617 392.67 47.5745V33.3723C392.67 31.4365 391.966 30.4685 390.558 30.4685Z" fill="#201C1C"/>
</svg>
